<?xml version="1.0" encoding="UTF-8"?>
<svg width="762px" height="308px" viewBox="0 0 762 308" version="1.1" xmlns="http://www.w3.org/2000/svg" xmlns:xlink="http://www.w3.org/1999/xlink">
    <title>Group 25</title>
    <defs>
        <polygon id="path-1" points="0.5159 0.3323 75.6729 0.3323 75.6729 75 0.5159 75"></polygon>
        <polygon id="path-3" points="0 307.448 761.816 307.448 761.816 0 0 0"></polygon>
    </defs>
    <g id="icons" stroke="none" stroke-width="1" fill="none" fill-rule="evenodd">
        <g id="Group-25">
            <path d="M98.2022,260.5259 C103.7512,279.4579 114.4412,294.9639 130.6812,301.8989 C129.1302,303.2049 127.1712,305.7349 126.1112,307.4479 C109.8712,299.6139 99.4262,284.1909 93.2242,264.4429 C91.4292,272.7659 88.4102,281.0079 83.1052,288.4339 L85.4722,286.8019 C91.1022,291.3719 98.0392,297.9819 101.3852,302.3889 L96.2442,306.3869 C93.2242,302.1439 86.7782,295.6159 81.3102,290.8819 C76.1692,297.4109 69.2332,303.0419 59.6852,307.2849 C58.7872,305.7349 56.9102,303.5319 55.1972,302.3069 C76.6592,293.2489 84.5742,276.6839 87.5122,260.5259 L57.0742,260.5259 L57.0742,254.4059 L88.4912,254.4059 C89.3892,246.5719 89.3072,239.0639 89.3892,232.8619 L95.8352,232.8619 C95.7542,239.2269 95.6722,246.6529 94.7752,254.4059 L128.5592,254.4059 L128.5592,260.5259 L98.2022,260.5259 Z" id="Fill-1" fill="#000000"></path>
            <path d="M184.0455,285.4966 C189.9205,294.5556 200.6115,299.6956 215.4625,301.4906 C214.2385,302.8786 212.5255,305.3266 211.7915,307.1216 C195.3075,304.4286 184.2905,297.9006 178.0065,286.1486 C173.9265,296.8396 165.1945,303.5316 144.3045,307.1216 C143.8155,305.5706 142.2645,303.0416 141.1215,301.6546 C159.8905,298.9616 167.8885,293.8206 171.5605,285.4966 L144.4675,285.4966 L144.4675,280.0296 L173.3555,280.0296 C173.8455,278.0706 174.1715,275.9486 174.4165,273.7456 L142.4275,273.7456 L142.4275,268.3596 L175.1505,268.3596 L175.1505,261.5046 L149.7725,261.5046 L149.7725,256.2006 L175.1505,256.2006 L175.1505,249.5906 L145.7735,249.5906 L145.7735,244.1236 L162.5025,244.1236 C161.1965,241.2676 158.6665,237.5146 156.2185,234.6566 L161.4415,232.5356 C164.4605,235.6376 167.3165,239.8796 168.6225,242.8176 L165.6845,244.1236 L187.1465,244.1236 C189.5945,240.7776 192.4505,235.9636 194.1645,232.5356 L200.3665,234.4126 C198.4075,237.7586 195.9595,241.2676 193.8375,244.1236 L210.9755,244.1236 L210.9755,249.5906 L181.1895,249.5906 L181.1895,256.2006 L207.3025,256.2006 L207.3025,261.5046 L181.1895,261.5046 L181.1895,268.3596 L214.7285,268.3596 L214.7285,273.7456 L180.6995,273.7456 C180.4555,275.9486 180.1285,278.0706 179.7205,280.0296 L213.7495,280.0296 L213.7495,285.4966 L184.0455,285.4966 Z" id="Fill-3" fill="#000000"></path>
            <path d="M271.4395,274.8882 L271.2765,275.4592 L271.4395,275.2962 C279.0285,280.6822 288.7395,288.4342 293.5545,293.4122 L289.5555,297.5752 C285.3935,292.8402 276.9065,285.6592 269.5625,280.2742 C266.4615,286.5572 259.7705,292.5962 245.7335,297.2472 C244.9995,295.9422 243.2865,293.7392 241.9805,292.5962 C258.0565,287.9452 263.6055,281.2532 265.3185,274.8882 L241.6535,274.8882 L241.6535,269.5022 L266.1355,269.5022 L266.1355,268.0342 L266.1355,257.8322 L253.3235,257.8322 C251.2835,260.5262 248.9985,262.9742 246.7945,264.9322 C245.6525,264.0342 243.1225,262.5662 241.7355,261.8312 C247.0395,257.6692 251.6095,251.3862 254.2215,244.7762 L259.9335,246.1632 C259.0355,248.2852 257.9745,250.4892 256.7505,252.5292 L293.4725,252.5292 L293.4725,257.8322 L272.0925,257.8322 L272.0925,268.0342 L272.0925,269.5022 L297.2265,269.5022 L297.2265,274.8882 L271.4395,274.8882 Z M300.7355,298.4712 L300.7355,304.2662 L231.1265,304.2662 L231.1265,237.2682 L298.8585,237.2682 L298.8585,243.0632 L237.1655,243.0632 L237.1655,298.4712 L300.7355,298.4712 Z" id="Fill-5" fill="#000000"></path>
            <path d="M383.9673,260.608 C378.3363,265.993 370.2583,271.624 362.9133,275.46 L362.9133,300.267 C362.9133,303.776 362.0153,305.327 359.2413,306.305 C356.4673,307.122 351.9783,307.204 345.2873,307.204 C344.9603,305.49 343.9813,303.205 343.1653,301.573 C348.3063,301.817 353.5293,301.736 354.9983,301.655 C356.3033,301.655 356.7933,301.328 356.7933,300.104 L356.7933,273.092 C361.8523,270.645 367.8093,266.809 372.2983,263.137 L336.4733,263.137 L336.4733,257.67 L378.3363,257.67 L379.7243,257.343 L383.9673,260.608 Z M320.2343,265.258 C318.6843,261.504 315.3383,255.221 312.6453,250.571 L317.2153,248.448 C319.9893,253.018 323.4173,259.057 325.0493,262.566 L320.2343,265.258 Z M386.6603,242.899 L386.6603,248.53 L331.2513,248.53 L331.2513,266.565 C331.2513,279.049 329.4553,296.187 318.3583,307.448 C317.3783,306.143 315.0933,303.939 313.7873,303.205 C321.0503,295.86 323.7433,286.557 324.7223,277.581 C320.9693,280.111 317.2973,282.395 313.8693,284.436 L311.6663,278.887 C315.2573,277.091 320.1533,274.399 325.2123,271.462 C325.2943,269.747 325.2943,268.115 325.2943,266.483 L325.2943,242.899 L354.1003,242.899 C353.2023,239.962 352.0603,236.616 350.9993,233.841 L356.8743,232.618 C358.3433,235.799 359.7313,239.798 360.6283,242.899 L386.6603,242.899 Z" id="Fill-7" fill="#000000"></path>
            <path d="M448.5933,253.5084 C446.0633,250.0804 440.4323,245.2664 435.6183,241.9204 L439.4533,238.4104 C444.3493,241.5124 450.0623,246.1634 452.7553,249.5904 L448.5933,253.5084 Z M446.7983,275.0514 C443.8603,271.4614 437.5763,266.4014 432.4353,263.1374 L436.1893,259.5464 C441.4123,262.7294 447.7773,267.5434 450.7963,271.0534 L446.7983,275.0514 Z M462.5473,285.9044 L462.5473,307.2034 L456.5903,307.2034 L456.5903,286.8834 L429.9873,291.2904 L429.0083,285.4964 L456.5903,281.0904 L456.5903,232.7794 L462.5473,232.7794 L462.5473,280.1114 L472.0953,278.6424 L472.9923,284.1914 L462.5473,285.9044 Z M425.6623,281.5794 C424.2753,278.8874 420.8473,273.5824 418.0733,269.4204 L418.0733,307.2034 L412.1163,307.2034 L412.1163,271.1344 C408.7703,279.2954 404.5273,287.3734 400.2833,292.4334 C399.7123,290.8014 398.2433,288.3534 397.2643,286.9654 C402.4053,281.1714 408.1173,270.7264 411.3003,261.3424 L398.4063,261.3424 L398.4063,255.6294 L412.1163,255.6294 L412.1163,243.3074 C408.3623,244.0414 404.5273,244.6954 400.9363,245.1844 C400.6103,243.8784 399.7943,241.7564 399.1413,240.4514 C408.2803,238.9834 418.9703,236.6154 425.0913,233.9224 L428.7633,238.7374 C425.7443,239.9614 421.9903,241.1044 418.0733,242.0014 L418.0733,255.6294 L430.0693,255.6294 L430.0693,261.3424 L418.0733,261.3424 L418.0733,262.8114 C420.6033,265.6664 427.6213,274.6434 429.3343,276.8464 L425.6623,281.5794 Z" id="Fill-9" fill="#000000"></path>
            <g id="Group-13" transform="translate(483.000000, 232.448000)">
                <mask id="mask-2" fill="white">
                    <use xlink:href="#path-1"></use>
                </mask>
                <g id="Clip-12"></g>
                <path d="M38.2169,36.5643 C40.9909,43.6643 45.0709,50.1113 50.2129,55.3343 C55.8429,50.2743 60.4129,43.9903 63.3509,36.5643 L38.2169,36.5643 Z M71.1849,32.4033 C67.7579,43.5833 61.9639,52.4773 54.6189,59.2513 C60.4949,64.0653 67.5129,67.5743 75.6729,69.7773 C74.3669,71.0023 72.6539,73.3683 71.7559,75.0003 C63.2689,72.3883 56.0069,68.4723 49.9679,63.1683 C43.0309,68.4723 35.1159,72.2253 26.7919,74.8363 C26.1389,73.2053 24.6709,70.6753 23.5279,69.3693 C31.4439,67.2483 39.0329,63.8203 45.6429,59.0053 C39.9299,52.8853 35.4419,45.3773 32.2599,36.6463 L32.5049,36.5643 L29.8119,36.5643 L29.8119,30.9333 L47.2749,30.9333 L47.2749,18.7753 L28.1789,18.7753 L28.1789,13.1443 L47.2749,13.1443 L47.2749,0.3323 L53.2319,0.3323 L53.2319,13.1443 L72.7359,13.1443 L72.7359,18.7753 L53.2319,18.7753 L53.2319,30.9333 L66.2069,30.9333 L67.1859,30.6893 L71.1849,32.4033 Z M27.7719,41.5433 C24.5079,42.5213 21.1619,43.5013 17.9789,44.4803 L17.9789,67.5743 C17.9789,71.0023 17.0809,72.6333 14.9599,73.6133 C12.9199,74.5913 9.4919,74.7553 3.9429,74.6733 C3.6979,73.1233 2.7999,70.7563 1.9849,69.1253 C5.9019,69.2073 9.4109,69.2073 10.3899,69.1253 C11.6139,69.1253 12.0219,68.7163 12.0219,67.5743 L12.0219,46.2753 L2.2299,49.1313 L0.5159,43.1743 C3.7799,42.4403 7.6969,41.4603 12.0219,40.2373 L12.0219,22.4473 L1.5769,22.4473 L1.5769,16.7353 L12.0219,16.7353 L12.0219,0.4143 L17.9789,0.4143 L17.9789,16.7353 L27.0369,16.7353 L27.0369,22.4473 L17.9789,22.4473 L17.9789,38.6053 C20.9169,37.7893 24.0179,36.8903 27.0369,35.9943 L27.7719,41.5433 Z" id="Fill-11" fill="#000000" mask="url(#mask-2)"></path>
            </g>
            <path d="M190.9412,79.4986 C163.9692,79.4986 149.4902,99.3736 149.4902,123.5056 C149.4902,147.6386 163.9692,167.5126 190.9412,167.5126 C215.0742,167.5126 232.1092,147.6386 232.1092,123.5056 C232.1092,99.3736 215.0742,79.4986 190.9412,79.4986 L190.9412,79.4986 Z M257.6622,190.2256 L232.1092,190.2256 L229.2702,178.8686 L227.8512,177.4496 L226.4312,178.8686 C217.9132,187.3866 203.7172,193.0646 189.5222,193.0646 C152.6122,193.0646 121.3822,164.6726 121.3822,123.5056 C121.3822,82.3376 152.6122,53.9466 189.5222,53.9466 C203.7172,53.9466 217.9132,59.6246 226.4312,68.1426 L227.8512,69.5616 L229.2702,68.1426 L232.1092,56.7856 L257.6622,56.7856 L257.6622,190.2256 Z" id="Fill-14" fill="#000000"></path>
            <mask id="mask-4" fill="white">
                <use xlink:href="#path-3"></use>
            </mask>
            <g id="Clip-17"></g>
            <polygon id="Fill-16" fill="#000000" mask="url(#mask-4)" points="296.255 190.226 324.078 190.226 324.078 56.786 296.255 56.786"></polygon>
            <path d="M474.8533,68.1426 C481.9513,59.6246 496.1473,53.9466 507.5023,53.9466 C538.7333,53.9466 555.7693,73.8206 555.7693,102.2116 L555.7693,190.2256 L527.3773,190.2256 L527.3773,105.0516 C527.3773,88.0166 518.8593,79.4986 504.6653,79.4986 C487.9143,79.4986 474.0003,93.1266 473.4343,109.5936 L473.4343,190.2256 L445.0433,190.2256 L445.0433,105.0516 C445.0433,88.0166 436.5253,79.4986 422.3293,79.4986 C405.5773,79.4986 391.6673,93.1266 391.0983,109.5936 L391.0983,190.2256 L362.7073,190.2256 L362.7073,56.7856 L388.2593,56.7856 L391.0983,68.1426 L392.5183,69.5616 L393.9373,68.1426 C399.6163,59.6246 413.8123,53.9466 425.1693,53.9466 C445.6103,53.9466 460.3733,62.7476 467.7553,76.6596 L474.8533,68.1426 Z" id="Fill-18" fill="#000000" mask="url(#mask-4)"></path>
            <path d="M611.1331,105.6192 L679.2741,105.6192 C677.8541,90.8552 663.6581,79.4982 646.6231,79.4982 C626.7481,79.4982 615.3921,90.8552 611.1331,105.6192 L611.1331,105.6192 Z M609.7131,130.6032 C609.7131,150.4772 623.9091,167.5122 648.0421,167.5122 C665.0781,167.5122 676.7171,158.9942 680.9761,147.6392 L704.8261,158.9942 C693.4691,178.8692 673.5951,193.0652 646.6231,193.0652 C611.1331,193.0652 581.3231,164.6732 581.3231,123.5052 C581.3231,82.3382 609.7131,53.9472 646.6231,53.9472 C680.6931,53.9472 709.0851,80.9182 709.0851,122.0862 L708.9451,124.4042 C708.8971,124.7462 708.7951,125.4092 708.7951,125.4092 L708.4471,127.2372 C708.4471,127.2372 708.0491,128.8372 707.7391,129.3202 C707.4221,129.9492 707.1131,130.1802 707.1131,130.1802 C707.1131,130.1802 706.8071,130.4342 706.6891,130.4812 C706.5611,130.5812 706.2461,130.6032 706.2461,130.6032 L609.7131,130.6032 Z" id="Fill-19" fill="#000000" mask="url(#mask-4)"></path>
            <polygon id="Fill-20" fill="#000000" mask="url(#mask-4)" points="733.426 31.234 761.817 31.234 761.817 0.003 733.426 0.003"></polygon>
            <polygon id="Fill-21" fill="#000000" mask="url(#mask-4)" points="295.971 31.234 324.361 31.234 324.361 0.003 295.971 0.003"></polygon>
            <polygon id="Fill-22" fill="#000000" mask="url(#mask-4)" points="733.71 190.226 761.533 190.226 761.533 56.786 733.71 56.786"></polygon>
            <polygon id="Fill-23" fill="#1440F2" mask="url(#mask-4)" points="0 31.234 28.662 31.234 28.662 0.003 0 0.003"></polygon>
            <polygon id="Fill-24" fill="#000000" mask="url(#mask-4)" points="57.4449 0.0001 57.4449 190.2261 87.5389 190.2261 87.5389 31.2341 144.9049 31.2341 144.9049 0.0021"></polygon>
        </g>
    </g>
</svg>