<?xml version="1.0" standalone="no"?><!DOCTYPE svg PUBLIC "-//W3C//DTD SVG 1.1//EN" "http://www.w3.org/Graphics/SVG/1.1/DTD/svg11.dtd"><svg t="1568880502832" class="icon" viewBox="0 0 1280 1024" version="1.1" xmlns="http://www.w3.org/2000/svg" p-id="10743" xmlns:xlink="http://www.w3.org/1999/xlink" width="250" height="200"><defs><style type="text/css"></style></defs><path d="M1024 938.666667V341.333333a85.333333 85.333333 0 0 0-85.333333-85.333333H768v213.333333h128a42.666667 42.666667 0 1 1 0 85.333334H768V682.666667h128a42.666667 42.666667 0 1 1 0 85.333333H768v170.666667h256z m85.333333 0h82.773334a42.666667 42.666667 0 1 1 0 85.333333H85.333333a42.666667 42.666667 0 1 1 0-85.333333h85.333334V170.666667a170.666667 170.666667 0 0 1 170.666666-170.666667h256a170.666667 170.666667 0 0 1 170.666667 170.666667h170.666667a170.666667 170.666667 0 0 1 170.666666 170.666666v597.333334z m-426.666666 0V170.666667a85.333333 85.333333 0 0 0-85.333334-85.333334H341.333333a85.333333 85.333333 0 0 0-85.333333 85.333334v768h426.666667zM384 341.333333a42.666667 42.666667 0 0 1 0-85.333333h170.666667a42.666667 42.666667 0 0 1 0 85.333333h-170.666667z m0 213.333334a42.666667 42.666667 0 0 1 0-85.333334h170.666667a42.666667 42.666667 0 0 1 0 85.333334h-170.666667z m0 213.333333a42.666667 42.666667 0 0 1 0-85.333333h170.666667a42.666667 42.666667 0 0 1 0 85.333333h-170.666667z" fill="#CCCCCC" p-id="10744"></path></svg>